<svg version="1.1" id="Layer_1" xmlns="http://www.w3.org/2000/svg" xmlns:xlink="http://www.w3.org/1999/xlink" x="0px" y="0px" viewBox="-179 505 720 72" style="enable-background:new -179 505 720 72;" xml:space="preserve">
 <style type="text/css">
  .st0{fill:#FFFFFF;}
 </style>
 <title>
  Bank of America
 </title>
 <path class="st0" d="M485.6,574c0-1.7,1.3-3,3-3s3,1.3,3,3s-1.3,3-3,3S485.6,575.7,485.6,574 M486.2,574c-0.1,1.3,1,2.5,2.3,2.5
	c1.3,0.1,2.5-1,2.5-2.3c0.1-1.3-1-2.5-2.3-2.5c0,0-0.1,0-0.1,0C487.3,571.6,486.2,572.7,486.2,574">
 </path>
 <path class="st0" d="M490.1,575.7h-0.6l-1-1.5H488v1.5h-0.5v-3.3h1.5c0.3,0,0.6,0,0.8,0.2c0.2,0.1,0.4,0.4,0.4,0.7
	c0,0.6-0.5,0.9-1.1,0.9L490.1,575.7z M488.5,573.8c0.5,0,1.1,0.1,1.1-0.5c0-0.4-0.4-0.5-0.8-0.5H488v1L488.5,573.8z">
 </path>
 <path class="st0" d="M474.3,577c21-18,50.5-35.5,66.7-41.8c-2.5-1.6-6.4-3.9-10.8-6.4c-20.9,6.9-45.2,22.2-67.1,39.5
	C466.8,571.1,470.7,574,474.3,577z">
 </path>
 <path class="st0" d="M464.7,528.1c-3.1-1.5-6.5-2.9-9.2-4.1c-10.9,5.5-21.3,11.9-31.2,19.1c2.8,1.5,5.8,3.3,9,5.1
	C443.4,540.8,453.5,533.8,464.7,528.1L464.7,528.1z">
 </path>
 <path class="st0" d="M483.4,519.5c-3.8-2.2-17-7-26.1-9.1c-2.7,1-6.5,2.5-9.1,3.6c3.2,0.9,15.6,4.2,26.1,9.5
	C477,522.2,480.8,520.6,483.4,519.5z">
 </path>
 <path class="st0" d="M438.7,518.2c-10.6,5-20.8,10.7-30.7,17.1c2.4,1.1,4.8,2,8.1,3.6c14.8-10,26.4-16.1,31-18.1
	C443.8,519.6,440.7,518.8,438.7,518.2L438.7,518.2z">
 </path>
 <path class="st0" d="M492.2,516.4c2.7-0.9,5.8-1.7,8.5-2.5c-8.6-3.6-17.4-6.6-26.4-9c-1.4,0.4-5.6,1.5-8.5,2.4
	C474.8,509.6,483.7,512.6,492.2,516.4L492.2,516.4z M442.9,554c3.2,1.9,6.6,4.5,9.9,6.7c21.9-17,43.5-30.1,67.2-37.6
	c-3.3-1.7-6.2-3.2-9.9-5C495.9,521.8,471.6,531.5,442.9,554z">
 </path>
 <path class="st0" d="M-179,571.8h16c8.1,0,11.9-4.2,11.9-10.1c0-4.8-2.5-8-7.7-9c4.6-1.1,6.7-3.9,6.7-8c0-5.2-3.8-9.4-11.9-9.4H-179
	V571.8z M-165.1,556.3c3,0,5.1,1.5,5.1,4.5c0,3.2-2,4.6-5.1,4.6h-5.2v-9.1H-165.1z M-166.1,541.7c3,0,5.1,1.3,5.1,4.3
	c0,3-2,4.3-5.1,4.3h-4.2v-8.6L-166.1,541.7z M-118.8,535.2h-9l-13.7,36.6h9.1l2.5-7.6h13.2l2.5,7.6h9.2L-118.8,535.2z M-123.3,544
	l4.3,13.5h-8.8L-123.3,544z M-59.4,535.3h-8.3v24.4l-15.6-24.5h-9.3v36.6h8.3v-24.4l15.6,24.4h9.3L-59.4,535.3z M-21.1,571.9
	l-12-18.6v18.6H-42v-36.6h8.9v17.6l11.4-17.6h9.9l-12,17.6l13.1,19L-21.1,571.9z M20.8,553.6c0,7.3,4.4,11.8,10.1,11.8
	S41,560.8,41,553.5c0-7.3-4.4-11.8-10.1-11.8S20.8,546.2,20.8,553.6L20.8,553.6z M11.4,553.6c0.1-10.7,7.6-19.1,19.5-19.1
	s19.4,8.4,19.5,19.1c0.1,10.7-7.6,19.1-19.5,19.1S11.5,564.3,11.4,553.6z M62.6,571.9h8.9v-14.5h11.5v-7H71.5v-8.2h14l1.6-7H62.6
	V571.9z M128.6,535.3h-9l-13.7,36.6h9.1l2.5-7.6h13.2l2.4,7.5h9.2L128.6,535.3z M124.1,544l4.3,13.5h-8.8L124.1,544z M195.2,535.3
	h-10.4l-9.5,19.7l-9.5-19.8h-10.4v36.6h8v-24.5l11.8,24.5l11.8-24.5v24.5h8.3L195.2,535.3z M212.5,571.9h25v-7h-16.1v-8.2h12.7v-6.8
	h-12.7v-7.6h14.7l1.6-7h-25.2V571.9z M271.4,571.9h9.6l-9.1-15.6c5-1.4,7.4-4.9,7.4-10c0-6.6-4-11-13-11h-14v36.5h8.8v-14.4h2.4
	L271.4,571.9z M264.7,542c3.7,0,5.6,1.6,5.6,4.7c0,3-1.9,4.7-5.6,4.7H261V542H264.7z M294.4,571.8h8.9v-36.6h-8.9V571.8z M347.1,562
	c-2.7,2-6,3.2-9.5,3.2c-6.9,0-11.5-4.7-11.5-11.7c0-7,4.7-11.7,11.3-11.7c3.4,0,6.6,1.1,9.2,3.2v-8.3c-3.2-1.7-6.8-2.5-10.4-2.3
	c-12.1,0-19.7,8.4-19.8,19.1c-0.1,10.7,7.5,19.1,19.8,19.1c3.7,0.1,7.4-0.7,10.8-2.3V562z M379.7,535.2h-9L357,571.8h9l2.5-7.6h13.2
	l2.5,7.6h9.2L379.7,535.2z M375.2,544l4.3,13.5h-8.8L375.2,544z">
 </path>
</svg>